<svg id="Layer_1" data-name="Layer 1" xmlns="http://www.w3.org/2000/svg" viewBox="0 0 481.36 463.38"><defs><style>.cls-1{fill:#898d8e;}</style></defs><title>highlight</title><g id="Group_4" data-name="Group 4"><path id="Path_9" data-name="Path 9" class="cls-1" d="M208.81,413.4c-11.46,12.7-18.15,20.19-18.15,20.19-.82.88-34.57-9.56-38.64-10.25a95.44,95.44,0,0,0-42.2,1.18,133.66,133.66,0,0,0-21.7,8.85L49.86,396.12a123.75,123.75,0,0,0,9.24-20.38,85.06,85.06,0,0,0,2.24-47.47c-.41-1.86-8.61-24.32-8.61-25.42L75,283.34Z" transform="translate(-3.54 -10)"/><path id="Path_10" data-name="Path 10" class="cls-1" d="M61.94,449.74a208.1,208.1,0,0,0-26.86,23.64L3.54,456.55c10-11.23,20.28-22.77,29.52-34.87Z" transform="translate(-3.54 -10)"/><path id="Path_11" data-name="Path 11" class="cls-1" d="M484.91,105.46S308.36,302.22,228.86,391L97.55,263.47,386.55,10Z" transform="translate(-3.54 -10)"/></g></svg>