<svg id="Layer_1" data-name="Layer 1" xmlns="http://www.w3.org/2000/svg" viewBox="0 0 474.76 465.92"><defs><style>.cls-1{fill:#fff;}</style></defs><title>pen</title><g id="Group_5" data-name="Group 5"><path id="Path_12" data-name="Path 12" class="cls-1" d="M335.93,312l-52.11,98.6a22.36,22.36,0,0,1-14.37,11.22l-229.51,58a4.38,4.38,0,0,1-4.3-7.29L145.8,365.52a6.92,6.92,0,0,1,6.13-1.94,35,35,0,0,0,6.93.71,32.83,32.83,0,0,0,7.51-65A33.73,33.73,0,0,0,125,331.37a31,31,0,0,0,1.14,8.34,6.84,6.84,0,0,1-1.66,6.83l-109,105.78A4.48,4.48,0,0,1,8,448.18L66.23,224.83a21.94,21.94,0,0,1,11.53-14.07L179.4,160a15,15,0,0,1,17.13,2.61L333.14,295.32A14,14,0,0,1,335.93,312Z" transform="translate(-7.9 -13.99)"/><path id="Path_13" data-name="Path 13" class="cls-1" d="M478.55,213.58,365.82,272.86a15.09,15.09,0,0,1-17.41-2.45L220.1,145.84a14,14,0,0,1-2.73-16.55L275.12,18.18a8,8,0,0,1,12.51-2l192.7,185.28a7.48,7.48,0,0,1,.28,10.57A7.41,7.41,0,0,1,478.55,213.58Z" transform="translate(-7.9 -13.99)"/></g></svg>