<svg id="Layer_1" data-name="Layer 1" xmlns="http://www.w3.org/2000/svg" viewBox="0 0 481.32 483.96"><defs><style>.cls-1{fill:#202124;opacity:0.72;isolation:isolate;}</style></defs><title>print</title><path id="Path_14" data-name="Path 14" class="cls-1" d="M472.07,118.39h-55V28.56A24.57,24.57,0,0,0,392.5,4H96.55A24.57,24.57,0,0,0,72,28.56h0v89.83H17.08A13.07,13.07,0,0,0,4,131.45V339.88a13,13,0,0,0,13,13H72.08V463.39A24.57,24.57,0,0,0,96.65,488h296a24.56,24.56,0,0,0,24.56-24.57h0V352.85h55A13,13,0,0,0,485.32,340V131.47a13.08,13.08,0,0,0-13.08-13.08ZM389.46,460.24H99.66V287.8H389.44Zm0-341.85H99.66V31.68H389.44Zm45,77.64a17.55,17.55,0,0,1-13.16,5.86,15,15,0,0,1-4.1-.6,17.83,17.83,0,0,1,0-34.8,15.33,15.33,0,0,1,4.1-.59,17.87,17.87,0,0,1,13.16,30Z" transform="translate(-4 -4)"/></svg>