<?xml version="1.0" encoding="utf-8"?>
<!-- Generator: Adobe Illustrator 23.0.6, SVG Export Plug-In . SVG Version: 6.00 Build 0)  -->
<svg version="1.1" id="Layer_1" xmlns="http://www.w3.org/2000/svg" xmlns:xlink="http://www.w3.org/1999/xlink" x="0px" y="0px"
	 viewBox="0 0 515.8 491.5" style="enable-background:new 0 0 515.8 491.5;" xml:space="preserve">
<style type="text/css">
	.st0{fill:none;stroke:#898D8E;stroke-width:6.0921;stroke-miterlimit:10;}
	.st1{fill:none;stroke:#898D8E;stroke-width:36.1769;stroke-linecap:round;stroke-linejoin:round;}
</style>
<g id="Rectangle_14_2_" transform="translate(74.14 3.72)">
	<path class="st0" d="M-46-0.4h458.2c13.3,0,24.1,10.8,24.1,24.1v434.1c0,13.3-10.8,24.1-24.1,24.1H-46c-13.3,0-24.1-10.8-24.1-24.1
		V23.8C-70.1,10.4-59.3-0.4-46-0.4z"/>
	<path class="st1" d="M-46,17.7h458.2c3.3,0,6,2.7,6,6v434.1c0,3.3-2.7,6-6,6H-46c-3.3,0-6-2.7-6-6V23.8
		C-52.1,20.4-49.4,17.7-46,17.7z"/>
</g>
</svg>
